<mxfile host="app.diagrams.net" modified="2021-03-15T07:45:59.952Z" agent="5.0 (Macintosh; Intel Mac OS X 10_14_6) AppleWebKit/537.36 (KHTML, like Gecko) Chrome/89.0.4389.82 Safari/537.36" etag="RtKoPPxGgA7ofw75hFBv" version="14.4.8" type="github">
  <diagram id="pRsa4_dXVRxyGwCUTNqC" name="第 1 页">
    <mxGraphModel dx="1395" dy="809" grid="1" gridSize="10" guides="1" tooltips="1" connect="1" arrows="1" fold="1" page="1" pageScale="1" pageWidth="827" pageHeight="1169" math="0" shadow="0">
      <root>
        <mxCell id="0" />
        <mxCell id="1" parent="0" />
        <UserObject label="%name%&lt;br&gt;&lt;i style=&quot;color: gray&quot;&gt;%position%&lt;/i&gt;&lt;br&gt;&lt;a href=&quot;mailto:%email%&quot;&gt;Email&lt;/a&gt;" name="Tessa Miller" position="CFO" location="Office 1" email="me@example.com" placeholders="1" link="https://www.draw.io" id="H2s4GVbX-m8OFEhEaxNL-1">
          <mxCell style="label;image=https://cdn3.iconfinder.com/data/icons/user-avatars-1/512/users-3-128.png;whiteSpace=wrap;html=1;rounded=1;fillColor=#dae8fc;strokeColor=#6c8ebf;" vertex="1" parent="1">
            <mxGeometry x="139" y="20" width="168" height="78" as="geometry" />
          </mxCell>
        </UserObject>
        <UserObject label="%name%&lt;br&gt;&lt;i style=&quot;color: gray&quot;&gt;%position%&lt;/i&gt;&lt;br&gt;&lt;a href=&quot;mailto:%email%&quot;&gt;Email&lt;/a&gt;" name="Edward Morrison" position="Brand Manager" location="Office 2" email="me@example.com" placeholders="1" link="https://www.draw.io" id="H2s4GVbX-m8OFEhEaxNL-2">
          <mxCell style="label;image=https://cdn3.iconfinder.com/data/icons/user-avatars-1/512/users-10-3-128.png;whiteSpace=wrap;html=1;rounded=1;fillColor=#d5e8d4;strokeColor=#82b366;" vertex="1" parent="1">
            <mxGeometry x="20" y="376" width="198" height="78" as="geometry" />
          </mxCell>
        </UserObject>
        <UserObject label="%name%&lt;br&gt;&lt;i style=&quot;color: gray&quot;&gt;%position%&lt;/i&gt;&lt;br&gt;&lt;a href=&quot;mailto:%email%&quot;&gt;Email&lt;/a&gt;" name="Alison Donovan" position="System Admin" location="Office 3" email="me@example.com" placeholders="1" link="https://www.draw.io" id="H2s4GVbX-m8OFEhEaxNL-3">
          <mxCell style="label;image=https://cdn3.iconfinder.com/data/icons/user-avatars-1/512/users-2-128.png;whiteSpace=wrap;html=1;rounded=1;fillColor=#d5e8d4;strokeColor=#82b366;" vertex="1" parent="1">
            <mxGeometry x="129" y="198" width="188" height="78" as="geometry" />
          </mxCell>
        </UserObject>
        <UserObject label="%name%&lt;br&gt;&lt;i style=&quot;color: gray&quot;&gt;%position%&lt;/i&gt;&lt;br&gt;&lt;a href=&quot;mailto:%email%&quot;&gt;Email&lt;/a&gt;" name="Evan Valet" position="HR Director" location="Office 4" email="me@example.com" placeholders="1" link="https://www.draw.io" id="H2s4GVbX-m8OFEhEaxNL-4">
          <mxCell style="label;image=https://cdn3.iconfinder.com/data/icons/user-avatars-1/512/users-9-2-128.png;whiteSpace=wrap;html=1;rounded=1;fillColor=#d5e8d4;strokeColor=#82b366;" vertex="1" parent="1">
            <mxGeometry x="258" y="376" width="168" height="78" as="geometry" />
          </mxCell>
        </UserObject>
        <mxCell id="H2s4GVbX-m8OFEhEaxNL-5" value="manages" style="curved=1;endArrow=blockThin;endFill=1;fontSize=11;" edge="1" parent="1" source="H2s4GVbX-m8OFEhEaxNL-1" target="H2s4GVbX-m8OFEhEaxNL-2">
          <mxGeometry relative="1" as="geometry">
            <Array as="points">
              <mxPoint x="170.33333333333334" y="110" />
              <mxPoint x="89" y="148" />
              <mxPoint x="89" y="326" />
              <mxPoint x="72" y="364" />
            </Array>
          </mxGeometry>
        </mxCell>
        <mxCell id="H2s4GVbX-m8OFEhEaxNL-6" value="manages" style="curved=1;endArrow=blockThin;endFill=1;fontSize=11;" edge="1" parent="1" source="H2s4GVbX-m8OFEhEaxNL-1" target="H2s4GVbX-m8OFEhEaxNL-3">
          <mxGeometry relative="1" as="geometry">
            <Array as="points">
              <mxPoint x="223" y="112" />
              <mxPoint x="223" y="186" />
            </Array>
          </mxGeometry>
        </mxCell>
        <mxCell id="H2s4GVbX-m8OFEhEaxNL-7" value="manages" style="curved=1;endArrow=blockThin;endFill=1;fontSize=11;" edge="1" parent="1" source="H2s4GVbX-m8OFEhEaxNL-1" target="H2s4GVbX-m8OFEhEaxNL-4">
          <mxGeometry relative="1" as="geometry">
            <Array as="points">
              <mxPoint x="275.66666666666663" y="110" />
              <mxPoint x="357" y="148" />
              <mxPoint x="357" y="326" />
              <mxPoint x="381.5" y="364" />
            </Array>
          </mxGeometry>
        </mxCell>
        <mxCell id="H2s4GVbX-m8OFEhEaxNL-8" value="" style="curved=1;fontSize=11;" edge="1" parent="1" source="H2s4GVbX-m8OFEhEaxNL-3" target="H2s4GVbX-m8OFEhEaxNL-2">
          <mxGeometry relative="1" as="geometry">
            <Array as="points">
              <mxPoint x="178.5" y="288" />
              <mxPoint x="166" y="364" />
            </Array>
          </mxGeometry>
        </mxCell>
        <mxCell id="H2s4GVbX-m8OFEhEaxNL-9" value="" style="curved=1;fontSize=11;" edge="1" parent="1" source="H2s4GVbX-m8OFEhEaxNL-3" target="H2s4GVbX-m8OFEhEaxNL-4">
          <mxGeometry relative="1" as="geometry">
            <Array as="points">
              <mxPoint x="267.5" y="288" />
              <mxPoint x="302.5" y="364" />
            </Array>
          </mxGeometry>
        </mxCell>
      </root>
    </mxGraphModel>
  </diagram>
</mxfile>
